# xmcd
#
# Track frame offsets:
#	150
#	12760
#	29171
#	45313
#	58211
#	74234
#	90894
#	104427
#	117570
#	132278
#	148599
#	164230
#	180135
#	198021
#	214263
#	228013
#	244424
#	256807
#	273551
#
# Disc length: 3826 seconds
#
# Revision: 1
# Processed by: cddbd v1.5.2PL0 Copyright (c) Steve Scherf et al.
# Submitted via: audiograbber 1.83.01
#
DISCID=170ef013
DTITLE=Various Artist - Promo Only Country Radio Sept 2016
DYEAR=2016
DGENRE=Country
TTITLE0=Ryan Follese - Float Your Boat
TTITLE1=Chase Rice - Everybody We Know Does
TTITLE2=Tim McGraw - How I'll Always Be
TTITLE3=Steven Tyler - We're All Somebody From Somewhere
TTITLE4=Randy Houser - Chasing Down A Good Time
TTITLE5=LoCash - The Fighters
TTITLE6=Chase Bryant - Room To Breathe
TTITLE7=Michael Tyler - Crazy Last Night
TTITLE8=Dustin Lynch - Seein' Red
TTITLE9=Trent Harmon - There's A Girl
TTITLE10=Trace Adkins - Lit
TTITLE11=Lucas Hodge - Boom Boom
TTITLE12=Jana Kramer - Circles
TTITLE13=Laureen Alaina - Road Less Travelled
TTITLE14=Dee Jay Silver ft. Austin Webb - Just Got Paid
TTITLE15=Jason Aldean - A Little More Summertime
TTITLE16=Kane Brown - Thunder In The Rain
TTITLE17=RaeLyn - Love Triangle
TTITLE18=Eric Paislay - Angels In This Town
EXTD=
EXTT0=
EXTT1=
EXTT2=
EXTT3=
EXTT4=
EXTT5=
EXTT6=
EXTT7=
EXTT8=
EXTT9=
EXTT10=
EXTT11=
EXTT12=
EXTT13=
EXTT14=
EXTT15=
EXTT16=
EXTT17=
EXTT18=
PLAYORDER=
